<?xml version="1.0" encoding="utf-8"?>
<!-- Generator: Adobe Illustrator 16.0.0, SVG Export Plug-In . SVG Version: 6.00 Build 0)  -->
<!DOCTYPE svg PUBLIC "-//W3C//DTD SVG 1.1//EN" "http://www.w3.org/Graphics/SVG/1.1/DTD/svg11.dtd">
<svg version="1.1" id="Слой_1" xmlns="http://www.w3.org/2000/svg" xmlns:xlink="http://www.w3.org/1999/xlink" x="0px" y="0px"
	 width="422.667px" height="140px" viewBox="0 0 422.667 140" enable-background="new 0 0 422.667 140" xml:space="preserve">
<g>
	<linearGradient id="SVGID_1_" gradientUnits="userSpaceOnUse" x1="66.9858" y1="7.0059" x2="66.9858" y2="189.8382">
		<stop  offset="0" style="stop-color:#FFFFFF"/>
		<stop  offset="1" style="stop-color:#000000"/>
	</linearGradient>
	<path fill="url(#SVGID_1_)" d="M112.769,32.866v17.687c3.455,6.889,5.45,14.637,5.45,22.858c0,28.25-22.985,51.231-51.232,51.231
		c-28.25,0-51.232-22.981-51.232-51.231c0-8.221,1.992-15.969,5.45-22.858v-17.69C11.624,43.669,5.79,57.87,5.79,73.411
		c0,33.741,27.452,61.195,61.196,61.195c33.746,0,61.197-27.454,61.197-61.195C128.183,57.87,122.348,43.669,112.769,32.866z"/>
	<g>
		<linearGradient id="SVGID_2_" gradientUnits="userSpaceOnUse" x1="32.8086" y1="1.3174" x2="57.5178" y2="41.1831">
			<stop  offset="0" style="stop-color:#F5E21D"/>
			<stop  offset="1" style="stop-color:#FEA621"/>
		</linearGradient>
		<path fill="url(#SVGID_2_)" d="M64.497,46.969c0,0-11.389-5.289-20.498-12.297c-4.146-3.19-8.822-6.471-10.355-9.194
			c-1.292-2.279-2.175-3.418-2.161-10.662c0.008-5.768,0-10.829,0-10.829s14.696,10.13,28.028,19.932
			c1.739,1.277,5.025,2.551,4.986,10.676C64.452,43.545,64.497,46.969,64.497,46.969z"/>
		<linearGradient id="SVGID_3_" gradientUnits="userSpaceOnUse" x1="30.1338" y1="25.7422" x2="58.7869" y2="71.8364">
			<stop  offset="0" style="stop-color:#F5E21D"/>
			<stop  offset="1" style="stop-color:#FEA621"/>
		</linearGradient>
		<path fill="url(#SVGID_3_)" d="M64.497,75.622c0,0-11.389-5.289-20.498-12.294c-4.146-3.191-8.822-6.473-10.355-9.194
			c-1.292-2.281-2.175-3.42-2.161-10.662c0.008-5.767,0-10.831,0-10.831s14.696,10.13,28.028,19.935
			c1.739,1.277,5.025,2.548,4.986,10.672C64.452,72.195,64.497,75.622,64.497,75.622z"/>
		<linearGradient id="SVGID_4_" gradientUnits="userSpaceOnUse" x1="28.5054" y1="55.9106" x2="67.9541" y2="111.139">
			<stop  offset="0" style="stop-color:#F5E21D"/>
			<stop  offset="1" style="stop-color:#FEA621"/>
		</linearGradient>
		<path fill="url(#SVGID_4_)" d="M64.497,104.274c0,0-11.389-5.286-20.498-12.297c-4.146-3.187-8.822-6.471-10.355-9.193
			c-1.292-2.279-2.175-3.418-2.161-10.659c0.008-5.767,0-10.828,0-10.828s14.696,10.127,28.028,19.928
			c1.739,1.278,5.025,2.552,4.986,10.677C64.452,100.851,64.497,104.274,64.497,104.274z"/>
		<g>
			<linearGradient id="SVGID_5_" gradientUnits="userSpaceOnUse" x1="72.6567" y1="20.2793" x2="118.9618" y2="38.3443">
				<stop  offset="0" style="stop-color:#CFCFCF"/>
				<stop  offset="1" style="stop-color:#000000"/>
			</linearGradient>
			<path fill="url(#SVGID_5_)" d="M69.476,34.596c-0.039-8.125,3.247-9.398,4.985-10.676c13.335-9.802,28.032-19.932,28.032-19.932
				s-0.007,1.28-0.007,3.28c-4.613,3.207-15.579,10.873-25.769,18.367c-1.733,1.278-5.021,2.549-4.979,10.674
				c0.017,4.476,0.017,7.573,0.011,9.545c-1.412,0.712-2.273,1.114-2.273,1.114S69.521,43.545,69.476,34.596z"/>
			<linearGradient id="SVGID_6_" gradientUnits="userSpaceOnUse" x1="105.8989" y1="-4.4067" x2="58.5565" y2="73.8727">
				<stop  offset="0" style="stop-color:#FFFFFF"/>
				<stop  offset="1" style="stop-color:#000000"/>
			</linearGradient>
			<path fill="url(#SVGID_6_)" d="M71.738,36.31c-0.042-8.125,3.246-9.396,4.979-10.674c10.19-7.494,21.156-15.16,25.769-18.367
				c0,1.983,0,4.678,0.007,7.548c0.014,7.244-0.878,8.383-2.161,10.662c-1.54,2.723-6.212,6.004-10.358,9.194
				c-6.632,5.101-14.449,9.278-18.225,11.183C71.754,43.883,71.754,40.786,71.738,36.31z"/>
		</g>
		<g>
			<linearGradient id="SVGID_7_" gradientUnits="userSpaceOnUse" x1="72.6567" y1="48.9326" x2="118.9618" y2="66.9977">
				<stop  offset="0" style="stop-color:#CFCFCF"/>
				<stop  offset="1" style="stop-color:#000000"/>
			</linearGradient>
			<path fill="url(#SVGID_7_)" d="M69.476,63.249c-0.039-8.124,3.247-9.396,4.985-10.672c13.335-9.805,28.032-19.935,28.032-19.935
				s-0.007,1.283-0.007,3.281c-4.613,3.207-15.579,10.875-25.769,18.365c-1.733,1.277-5.021,2.551-4.979,10.676
				c0.017,4.476,0.017,7.57,0.011,9.545c-1.412,0.708-2.273,1.114-2.273,1.114S69.521,72.195,69.476,63.249z"/>
			<linearGradient id="SVGID_8_" gradientUnits="userSpaceOnUse" x1="105.8989" y1="24.2466" x2="58.557" y2="102.5253">
				<stop  offset="0" style="stop-color:#FFFFFF"/>
				<stop  offset="1" style="stop-color:#000000"/>
			</linearGradient>
			<path fill="url(#SVGID_8_)" d="M71.738,64.963c-0.042-8.125,3.246-9.399,4.979-10.676c10.19-7.489,21.156-15.158,25.769-18.365
				c0,1.986,0,4.681,0.007,7.55c0.014,7.242-0.878,8.381-2.161,10.662c-1.54,2.721-6.212,6.003-10.358,9.194
				c-6.632,5.098-14.449,9.277-18.225,11.18C71.754,72.533,71.754,69.438,71.738,64.963z"/>
		</g>
		<g>
			<linearGradient id="SVGID_9_" gradientUnits="userSpaceOnUse" x1="72.6567" y1="77.5859" x2="118.9597" y2="95.6502">
				<stop  offset="0" style="stop-color:#CFCFCF"/>
				<stop  offset="1" style="stop-color:#000000"/>
			</linearGradient>
			<path fill="url(#SVGID_9_)" d="M69.476,91.902c-0.039-8.125,3.247-9.398,4.985-10.677c13.335-9.801,28.032-19.928,28.032-19.928
				s-0.007,1.277-0.007,3.277c-4.613,3.21-15.579,10.873-25.769,18.368c-1.733,1.277-5.021,2.549-4.979,10.673
				c0.017,4.479,0.017,7.574,0.011,9.546c-1.412,0.712-2.273,1.113-2.273,1.113S69.521,100.851,69.476,91.902z"/>
			<linearGradient id="SVGID_10_" gradientUnits="userSpaceOnUse" x1="105.8994" y1="52.8994" x2="58.5565" y2="131.1797">
				<stop  offset="0" style="stop-color:#FFFFFF"/>
				<stop  offset="1" style="stop-color:#000000"/>
			</linearGradient>
			<path fill="url(#SVGID_10_)" d="M71.738,93.615c-0.042-8.124,3.246-9.396,4.979-10.673c10.19-7.495,21.156-15.158,25.769-18.368
				c0,1.989,0,4.679,0.007,7.551c0.014,7.241-0.878,8.38-2.161,10.659c-1.54,2.723-6.212,6.007-10.358,9.193
				c-6.632,5.104-14.449,9.279-18.225,11.184C71.754,101.189,71.754,98.094,71.738,93.615z"/>
		</g>
	</g>
</g>
<g>
	<path d="M171.075,53.256l-2.59,7.556h-4.966l10.96-31.701h8.087l11.159,31.701h-7.207l-2.79-7.556H171.075z M182.234,48.639
		l-4.833-13.534l-4.633,13.534H182.234z"/>
	<path d="M221.059,46.862v11.425c0,0.144-0.463,0.448-1.387,0.913c-0.924,0.465-2.318,0.895-4.185,1.287
		c-1.865,0.393-4.132,0.589-6.8,0.589c-3.509-0.078-6.279-0.725-8.312-1.943c-2.032-1.217-3.468-3.047-4.31-5.488
		c-0.841-2.441-1.262-5.654-1.262-9.64c0.089-3.21,0.576-5.909,1.462-8.095c0.886-2.187,2.291-3.867,4.218-5.04
		c1.926-1.173,4.455-1.783,7.589-1.827c2.978,0,5.573,0.18,7.788,0.54c2.213,0.36,3.354,0.634,3.42,0.822l1.229,5.098
		c0-0.033-0.365-0.254-1.096-0.664c-0.798-0.442-1.843-0.839-3.14-1.188c-1.295-0.349-2.872-0.523-4.732-0.523
		c-0.863,0-1.544,0.022-2.042,0.066c-4.539,0.288-6.808,3.892-6.808,10.811c0,2.391,0.104,4.481,0.314,6.269
		c0.21,1.788,0.709,3.329,1.495,4.625c0.785,1.295,1.953,2.021,3.503,2.175c1.894,0,3.316-0.171,4.269-0.515
		c0.951-0.343,1.545-0.625,1.777-0.847v-8.851H221.059z"/>
	<path d="M241.185,46.73l9.05,14.082h-8.369l-9.73-17.137h3.886c0.1,0,0.349,0.011,0.747,0.033c0.398,0.023,0.736,0.034,1.013,0.034
		c3.797,0,5.746-1.655,5.846-4.965c0-1.749-0.448-3.139-1.346-4.168c-0.896-1.029-2.081-1.544-3.554-1.544h-6.459v27.749h-7.207
		V29.111h14.563c7.073,0,10.61,3.061,10.61,9.183c-0.099,2.502-0.819,4.374-2.158,5.613c-1.34,1.24-2.823,2.048-4.45,2.424
		c-1.239,0.299-2.01,0.449-2.309,0.449C241.229,46.78,241.185,46.763,241.185,46.73z"/>
	<path d="M265.463,28.978c3.311,0,5.978,0.595,8.004,1.785s3.477,2.953,4.352,5.289c0.873,2.336,1.312,5.286,1.312,8.851
		c0,3.664-0.482,6.695-1.445,9.091c-0.963,2.397-2.455,4.177-4.475,5.339c-2.021,1.163-4.625,1.744-7.813,1.744
		c-3.066,0-5.586-0.57-7.556-1.71c-1.971-1.14-3.427-2.906-4.367-5.297c-0.941-2.391-1.411-5.446-1.411-9.166
		c0.032-5.314,1.147-9.289,3.346-11.923C257.605,30.345,260.957,29.011,265.463,28.978z M259.534,44.903
		c0.122,3.708,0.515,6.587,1.179,8.635c0.664,2.048,2.226,3.089,4.684,3.122c1.815,0,3.169-0.551,4.061-1.652
		c0.891-1.102,1.455-2.463,1.693-4.085s0.357-3.584,0.357-5.887c0-2.358-0.104-4.312-0.308-5.862
		c-0.204-1.55-0.744-2.897-1.619-4.043s-2.203-1.724-3.985-1.735c-2.536,0-4.18,1.035-4.932,3.105
		C259.91,38.571,259.534,41.372,259.534,44.903z"/>
	<path d="M307.574,38.293c0,2.602-0.521,4.603-1.568,6.003c-1.046,1.4-2.397,2.328-4.052,2.781
		c-1.655,0.455-3.617,0.681-5.888,0.681h-6.525v13.052h-7.207V29.111h14.563c3.333,0,5.928,0.67,7.789,2.009
		C306.546,32.459,307.509,34.851,307.574,38.293z M300.767,38.095c-0.033-1.605-0.479-2.845-1.336-3.72
		c-0.858-0.874-1.98-1.312-3.364-1.312h-6.525v10.81h6.326c1.617,0,2.838-0.415,3.662-1.245
		C300.354,41.798,300.767,40.287,300.767,38.095z"/>
	<path d="M326.273,46.73l9.05,14.082h-8.369l-9.73-17.137h3.886c0.1,0,0.349,0.011,0.747,0.033c0.399,0.023,0.736,0.034,1.013,0.034
		c3.797,0,5.746-1.655,5.846-4.965c0-1.749-0.448-3.139-1.346-4.168c-0.896-1.029-2.081-1.544-3.553-1.544h-6.46v27.749h-7.207
		V29.111h14.563c7.073,0,10.61,3.061,10.61,9.183c-0.099,2.502-0.819,4.374-2.158,5.613c-1.34,1.24-2.823,2.048-4.45,2.424
		c-1.239,0.299-2.01,0.449-2.309,0.449C326.318,46.78,326.273,46.763,326.273,46.73z"/>
	<path d="M350.553,28.978c3.31,0,5.978,0.595,8.003,1.785c2.026,1.19,3.477,2.953,4.352,5.289c0.874,2.336,1.312,5.286,1.312,8.851
		c0,3.664-0.482,6.695-1.445,9.091c-0.963,2.397-2.455,4.177-4.475,5.339c-2.021,1.163-4.625,1.744-7.813,1.744
		c-3.066,0-5.586-0.57-7.555-1.71c-1.972-1.14-3.428-2.906-4.368-5.297c-0.941-2.391-1.411-5.446-1.411-9.166
		c0.033-5.314,1.148-9.289,3.346-11.923C342.695,30.345,346.046,29.011,350.553,28.978z M344.623,44.903
		c0.123,3.708,0.516,6.587,1.18,8.635c0.664,2.048,2.225,3.089,4.683,3.122c1.815,0,3.169-0.551,4.061-1.652
		s1.456-2.463,1.694-4.085c0.237-1.622,0.356-3.584,0.356-5.887c0-2.358-0.103-4.312-0.308-5.862
		c-0.204-1.55-0.744-2.897-1.619-4.043c-0.874-1.146-2.202-1.724-3.985-1.735c-2.535,0-4.179,1.035-4.932,3.105
		S344.623,41.372,344.623,44.903z"/>
	<path d="M390.755,39.589l-8.917,21.836l-9.251-21.836v21.222h-5.098V29.111h8.021l7.423,16.606l7.14-16.606h7.889v31.701h-7.207
		V39.589z"/>
	<path d="M148.458,80.124h21.571v3.951h-14.364v9.25h11.973v3.936h-11.973v10.611h14.563v3.952h-21.77V80.124z"/>
	<path d="M192.945,102.84v-22.65h5.181v31.701h-8.436l-11.574-24.079v24.013h-5.098v-31.7h8.917L192.945,102.84z"/>
	<path d="M227.701,97.875V109.3c0,0.145-0.463,0.449-1.387,0.913c-0.924,0.465-2.319,0.895-4.185,1.287
		c-1.866,0.393-4.132,0.59-6.8,0.59c-3.51-0.077-6.279-0.726-8.312-1.943c-2.031-1.217-3.468-3.047-4.31-5.488
		c-0.841-2.441-1.262-5.653-1.262-9.64c0.089-3.21,0.575-5.908,1.462-8.095c0.886-2.187,2.291-3.866,4.217-5.04
		c1.927-1.173,4.456-1.782,7.59-1.827c2.978,0,5.573,0.181,7.788,0.54c2.213,0.359,3.354,0.634,3.42,0.822l1.229,5.098
		c0-0.033-0.366-0.254-1.097-0.664c-0.797-0.443-1.843-0.839-3.139-1.188c-1.295-0.349-2.872-0.523-4.732-0.523
		c-0.863,0-1.544,0.023-2.042,0.067c-4.539,0.288-6.809,3.891-6.809,10.81c0,2.392,0.105,4.481,0.315,6.27
		c0.21,1.787,0.709,3.329,1.495,4.624c0.785,1.296,1.953,2.021,3.503,2.176c1.894,0,3.316-0.172,4.269-0.516
		c0.951-0.342,1.545-0.625,1.776-0.846v-8.852H227.701z"/>
	<path d="M238.91,80.124v31.7h-7.207v-31.7H238.91z"/>
	<path d="M262.922,102.84v-22.65h5.182v31.701h-8.437l-11.574-24.079v24.013h-5.098v-31.7h8.917L262.922,102.84z"/>
	<path d="M272.305,80.124h21.57v3.951h-14.364v9.25h11.974v3.936h-11.974v10.611h14.564v3.952h-21.771V80.124z"/>
	<path d="M296.864,80.124h21.571v3.951h-14.364v9.25h11.974v3.936h-11.974v10.611h14.563v3.952h-21.771V80.124z"/>
	<path d="M337.549,97.742l9.05,14.082h-8.369l-9.73-17.138h3.886c0.1,0,0.349,0.012,0.747,0.034
		c0.399,0.021,0.736,0.032,1.013,0.032c3.797,0,5.746-1.654,5.846-4.965c0-1.749-0.448-3.139-1.346-4.168
		c-0.896-1.03-2.081-1.545-3.553-1.545h-6.46v27.749h-7.207v-31.7h14.563c7.073,0,10.61,3.061,10.61,9.183
		c-0.099,2.502-0.819,4.372-2.158,5.612c-1.34,1.24-2.823,2.049-4.45,2.425c-1.239,0.299-2.01,0.448-2.309,0.448
		C337.594,97.792,337.549,97.775,337.549,97.742z"/>
	<path d="M356.514,80.124v31.7h-7.207v-31.7H356.514z"/>
	<path d="M380.525,102.84v-22.65h5.182v31.701h-8.437l-11.574-24.079v24.013h-5.098v-31.7h8.917L380.525,102.84z"/>
	<path d="M415.281,97.875V109.3c0,0.145-0.463,0.449-1.387,0.913c-0.924,0.465-2.319,0.895-4.185,1.287s-4.133,0.59-6.8,0.59
		c-3.51-0.077-6.279-0.726-8.311-1.943c-2.032-1.217-3.469-3.047-4.311-5.488c-0.841-2.441-1.261-5.653-1.261-9.64
		c0.088-3.21,0.575-5.908,1.46-8.095c0.887-2.187,2.293-3.866,4.219-5.04c1.927-1.173,4.455-1.782,7.588-1.827
		c2.979,0,5.575,0.181,7.789,0.54s3.354,0.634,3.421,0.822l1.229,5.098c0-0.033-0.365-0.254-1.096-0.664
		c-0.797-0.443-1.843-0.839-3.139-1.188c-1.295-0.349-2.873-0.523-4.732-0.523c-0.863,0-1.545,0.023-2.042,0.067
		c-4.54,0.288-6.81,3.891-6.81,10.81c0,2.392,0.105,4.481,0.315,6.27c0.211,1.787,0.709,3.329,1.495,4.624
		c0.786,1.296,1.954,2.021,3.504,2.176c1.893,0,3.315-0.172,4.267-0.516c0.953-0.342,1.546-0.625,1.777-0.846v-8.852H415.281z"/>
</g>
</svg>
